<?xml version="1.0" encoding="UTF-8" standalone="no"?>
<!-- Created with Inkscape (http://www.inkscape.org/) -->

<svg
   width="113mm"
   height="25mm"
   viewBox="0 0 113 25"
   version="1.1"
   id="svg1"
   inkscape:version="1.3 (0e150ed6c4, 2023-07-21)"
   sodipodi:docname="Katapult Logo Design Black V3.svg"
   xmlns:inkscape="http://www.inkscape.org/namespaces/inkscape"
   xmlns:sodipodi="http://sodipodi.sourceforge.net/DTD/sodipodi-0.dtd"
   xmlns:xlink="http://www.w3.org/1999/xlink"
   xmlns="http://www.w3.org/2000/svg"
   xmlns:svg="http://www.w3.org/2000/svg">
  <sodipodi:namedview
     id="namedview1"
     pagecolor="#ffffff"
     bordercolor="#000000"
     borderopacity="0.25"
     inkscape:showpageshadow="2"
     inkscape:pageopacity="0.0"
     inkscape:pagecheckerboard="false"
     inkscape:deskcolor="#d1d1d1"
     inkscape:document-units="mm"
     inkscape:zoom="1.4142136"
     inkscape:cx="306.88435"
     inkscape:cy="-126.21856"
     inkscape:window-width="1920"
     inkscape:window-height="1111"
     inkscape:window-x="-9"
     inkscape:window-y="-9"
     inkscape:window-maximized="1"
     inkscape:current-layer="layer1" />
  <defs
     id="defs1">
    <linearGradient
       id="linearGradient18"
       inkscape:collect="always">
      <stop
         style="stop-color:#000000;stop-opacity:1;"
         offset="0"
         id="stop18" />
      <stop
         style="stop-color:#ffffff;stop-opacity:0;"
         offset="0.73308957"
         id="stop19" />
    </linearGradient>
    <linearGradient
       inkscape:collect="always"
       xlink:href="#linearGradient18"
       id="linearGradient19"
       x1="92.807899"
       y1="11.149141"
       x2="91.07106"
       y2="12.77001"
       gradientUnits="userSpaceOnUse"
       gradientTransform="matrix(0.88778455,0,0,0.7807948,10.119694,2.4439497)" />
    <linearGradient
       inkscape:collect="always"
       xlink:href="#linearGradient18"
       id="linearGradient20"
       gradientUnits="userSpaceOnUse"
       gradientTransform="matrix(0.88778455,0,0,0.7807948,10.119694,2.4439497)"
       x1="93.59391"
       y1="11.306118"
       x2="94.638466"
       y2="8.7312889" />
  </defs>
  <g
     inkscape:label="Layer 1"
     inkscape:groupmode="layer"
     id="layer1">
    <g
       id="g104"
       transform="translate(-53.013901,-228.76512)"
       clip-path="none"
       style="fill:#000000;fill-opacity:1">
      <path
         d="m 132.68811,236.2588 v 0.84737 h 2.78639 v 9.02847 h 1.0511 v -9.02847 h 2.78639 v -0.84737 z"
         style="font-size:16.9333px;line-height:1.2;font-family:Abel;-inkscape-font-specification:Abel;letter-spacing:3.583px;word-spacing:0px;fill:#000000;stroke-width:0.324594;fill-opacity:1"
         id="path11" />
      <path
         d="m 123.39772,236.2588 v 9.87584 h 5.52369 v -0.84737 h -4.47259 v -9.02847 z"
         style="font-size:16.9333px;line-height:1.2;font-family:Abel;-inkscape-font-specification:Abel;letter-spacing:3.583px;word-spacing:0px;fill:#000000;stroke-width:0.324594;fill-opacity:1"
         id="path10" />
      <path
         d="m 110.95455,236.2588 v 7.58946 c 0,0.16758 0.0181,0.32964 0.0548,0.48688 0.0367,0.15725 0.092,0.30942 0.16536,0.45635 0.076,0.14691 0.16552,0.28453 0.26872,0.41308 0.10319,0.12855 0.22001,0.24818 0.35037,0.35837 0.13035,0.11019 0.27167,0.2088 0.42374,0.29603 0.15208,0.0872 0.31506,0.16305 0.48886,0.22733 0.17652,0.062 0.35832,0.10853 0.5457,0.13952 0.18739,0.031 0.38002,0.0462 0.57826,0.0462 h 0.83096 c 0.19824,0 0.39069,-0.0153 0.57671,-0.0462 0.18602,-0.031 0.3657,-0.0776 0.5395,-0.13952 0.1738,-0.0643 0.33678,-0.1401 0.48886,-0.22733 0.15208,-0.0872 0.2934,-0.18584 0.42375,-0.29603 0.13035,-0.11019 0.24646,-0.22982 0.3483,-0.35837 0.10183,-0.12855 0.18919,-0.26617 0.26251,-0.41308 0.076,-0.14693 0.13303,-0.2991 0.17105,-0.45635 0.038,-0.15724 0.0574,-0.3193 0.0574,-0.48688 v -7.58946 h -1.0511 v 7.58946 c 0,0.11019 -0.0122,0.2169 -0.0367,0.32021 -0.0244,0.1033 -0.0612,0.203 -0.11007,0.29942 -0.0489,0.0941 -0.10658,0.18298 -0.17311,0.26676 -0.0665,0.0838 -0.14164,0.16235 -0.22583,0.23581 -0.0842,0.0711 -0.1758,0.13503 -0.27492,0.19127 -0.0991,0.0562 -0.20582,0.105 -0.31987,0.14632 -0.11135,0.0413 -0.22746,0.0722 -0.3483,0.0929 -0.12085,0.0207 -0.24637,0.0309 -0.37672,0.0309 h -0.73329 c -0.13036,0 -0.25659,-0.0103 -0.37879,-0.0309 -0.12221,-0.0207 -0.24044,-0.0515 -0.3545,-0.0929 -0.11134,-0.0414 -0.21662,-0.0901 -0.31575,-0.14632 -0.0991,-0.0562 -0.19215,-0.12011 -0.27905,-0.19127 -0.0842,-0.0735 -0.15929,-0.15202 -0.22582,-0.23581 -0.0665,-0.0838 -0.12424,-0.17264 -0.17312,-0.26676 -0.0489,-0.0964 -0.0856,-0.19612 -0.11007,-0.29942 -0.0244,-0.10331 -0.0367,-0.21002 -0.0367,-0.32021 v -7.58946 z"
         style="font-size:16.9333px;line-height:1.2;font-family:Abel;-inkscape-font-specification:Abel;letter-spacing:3.583px;word-spacing:0px;fill:#000000;stroke-width:0.324594;fill-opacity:1"
         id="path9" />
      <path
         d="m 99.016261,236.2588 v 9.87584 h 1.051099 v -3.79494 h 2.6479 c 0.0496,0 0.0985,-8.2e-4 0.14728,-0.003 0.0488,-0.002 0.0972,-0.005 0.14521,-0.008 0.048,-0.004 0.0959,-0.009 0.14314,-0.0144 0.0472,-0.006 0.0941,-0.0126 0.14056,-0.0204 0.0465,-0.007 0.0927,-0.0166 0.1385,-0.0263 0.0458,-0.01 0.0909,-0.0202 0.1359,-0.0318 0.045,-0.0117 0.0896,-0.0242 0.13385,-0.0378 0.0442,-0.0135 0.0883,-0.0282 0.13177,-0.0437 0.0883,-0.0322 0.17341,-0.0673 0.2558,-0.10518 0.0824,-0.0379 0.16203,-0.0785 0.23874,-0.12214 0.0767,-0.0436 0.15072,-0.0902 0.2217,-0.13953 0.071,-0.0493 0.13894,-0.10141 0.20412,-0.1565 0.0652,-0.0551 0.12695,-0.11254 0.185,-0.17219 0.058,-0.0597 0.11238,-0.12148 0.1633,-0.18576 0.0509,-0.0643 0.0982,-0.13081 0.14211,-0.19975 0.0439,-0.0689 0.0843,-0.1403 0.12092,-0.21376 0.019,-0.0368 0.0366,-0.0737 0.0532,-0.11111 0.0166,-0.0374 0.0322,-0.0752 0.0465,-0.11324 0.0142,-0.038 0.0274,-0.0762 0.0393,-0.11493 0.0119,-0.0387 0.0225,-0.0777 0.032,-0.11706 0.01,-0.0393 0.0177,-0.0789 0.0248,-0.11875 0.007,-0.0399 0.0134,-0.0803 0.0181,-0.12087 0.005,-0.0405 0.008,-0.0813 0.0103,-0.12257 0.002,-0.0412 0.004,-0.0828 0.004,-0.12469 v -1.2261 c 0,-0.0419 -10e-4,-0.0834 -0.004,-0.12469 -0.002,-0.0413 -0.006,-0.0824 -0.0103,-0.12299 -0.005,-0.0406 -0.011,-0.0809 -0.0181,-0.12088 -0.007,-0.04 -0.0153,-0.0794 -0.0248,-0.11875 -0.01,-0.0393 -0.0202,-0.0785 -0.032,-0.11705 -0.0119,-0.0387 -0.025,-0.077 -0.0393,-0.11493 -0.0143,-0.038 -0.0299,-0.0755 -0.0465,-0.11282 -0.0166,-0.0373 -0.0342,-0.0744 -0.0532,-0.11111 -0.0366,-0.0746 -0.0771,-0.14694 -0.12092,-0.21673 -0.0439,-0.0698 -0.0912,-0.13703 -0.14211,-0.20187 -0.0255,-0.0324 -0.0518,-0.0643 -0.0791,-0.0954 -0.0272,-0.0312 -0.0552,-0.0616 -0.0842,-0.0916 -0.029,-0.03 -0.0591,-0.0595 -0.0899,-0.0882 -0.0308,-0.0287 -0.0625,-0.0569 -0.0951,-0.0844 -0.0326,-0.0276 -0.0657,-0.0541 -0.0997,-0.0802 -0.034,-0.026 -0.0689,-0.0514 -0.10438,-0.0759 -0.0355,-0.0245 -0.0716,-0.0483 -0.10852,-0.0712 -0.0369,-0.023 -0.0748,-0.0455 -0.11318,-0.067 -0.0383,-0.0215 -0.0775,-0.0423 -0.1173,-0.0624 -0.0398,-0.02 -0.0802,-0.0391 -0.12144,-0.0577 -0.0412,-0.0185 -0.0829,-0.0364 -0.12557,-0.0534 -0.0427,-0.017 -0.0861,-0.0332 -0.13023,-0.0487 -0.0434,-0.0161 -0.0875,-0.0314 -0.13177,-0.0454 -0.0442,-0.014 -0.0888,-0.027 -0.13385,-0.039 -0.045,-0.0121 -0.0901,-0.0231 -0.1359,-0.0331 -0.0458,-0.01 -0.092,-0.0191 -0.1385,-0.0272 -0.0465,-0.008 -0.0933,-0.0152 -0.14056,-0.0212 -0.0473,-0.006 -0.0951,-0.0108 -0.14314,-0.0148 -0.048,-0.004 -0.0964,-0.007 -0.14521,-0.009 -0.0488,-0.002 -0.0977,-0.003 -0.14728,-0.003 z m 1.051099,0.84737 h 2.59881 c 0.0652,0 0.12894,0.002 0.19172,0.007 0.0628,0.005 0.12457,0.013 0.185,0.0233 0.0604,0.0103 0.11971,0.0231 0.17777,0.0386 0.0581,0.0154 0.11486,0.0336 0.17053,0.0542 0.057,0.0206 0.11204,0.0432 0.16536,0.0679 0.0533,0.0247 0.10495,0.0515 0.15451,0.0802 0.0495,0.0287 0.0973,0.0593 0.14315,0.092 0.0458,0.0327 0.0897,0.0676 0.13177,0.10433 0.0435,0.0356 0.0847,0.0728 0.12351,0.11155 0.0388,0.0387 0.0751,0.0789 0.10904,0.12087 0.034,0.0418 0.0655,0.0852 0.0946,0.1302 0.0291,0.045 0.0556,0.0917 0.0801,0.13995 0.0245,0.0471 0.0457,0.0951 0.0641,0.1442 0.0184,0.0491 0.0338,0.0991 0.046,0.15014 0.0123,0.051 0.0213,0.10299 0.0274,0.15607 0.006,0.0531 0.009,0.10734 0.009,0.16243 v 1.2261 c 0,0.0551 -0.003,0.1095 -0.009,0.16287 -0.006,0.0533 -0.0151,0.10569 -0.0274,0.15734 -0.0122,0.0516 -0.0276,0.10237 -0.046,0.15226 -0.0184,0.0499 -0.0396,0.099 -0.0641,0.14717 -0.0245,0.047 -0.051,0.0928 -0.0801,0.13698 -0.0291,0.0441 -0.0606,0.0868 -0.0946,0.12809 -0.034,0.0413 -0.0703,0.0812 -0.10904,0.11959 -0.0388,0.0385 -0.0801,0.0756 -0.12351,0.11112 -0.0421,0.0356 -0.086,0.0694 -0.13177,0.10136 -0.0458,0.0319 -0.0936,0.0618 -0.14315,0.0899 -0.0495,0.0281 -0.10119,0.0545 -0.15451,0.0789 -0.0533,0.0244 -0.10833,0.0468 -0.16536,0.0675 -0.0557,0.0206 -0.11248,0.0388 -0.17053,0.0542 -0.0581,0.0154 -0.11735,0.0282 -0.17777,0.0386 -0.0604,0.0103 -0.12222,0.0181 -0.185,0.0233 -0.0628,0.005 -0.12655,0.007 -0.19172,0.007 h -2.59881 z"
         style="font-size:16.9333px;line-height:1.2;font-family:Abel;-inkscape-font-specification:Abel;letter-spacing:3.583px;word-spacing:0px;fill:#000000;stroke-width:0.324594;fill-opacity:1"
         id="path15" />
      <path
         d="m 89.995106,236.2588 -3.422013,9.87584 h 1.091923 l 0.765845,-2.30037 0.284737,-0.84695 1.531689,-4.55241 0.03256,-0.36473 0.03256,0.36473 1.539957,4.55241 0.276986,0.84695 0.774113,2.30037 h 1.083655 l -3.438033,-9.87584 z"
         style="font-size:16.9333px;line-height:1.2;font-family:Abel;-inkscape-font-specification:Abel;letter-spacing:3.583px;word-spacing:0px;fill:#000000;stroke-width:0.324594;fill-opacity:1"
         id="path25"
         inkscape:label="A2" />
      <path
         d="m 76.419191,236.2588 v 0.84737 h 2.786393 v 9.02847 h 1.050582 v -9.02847 h 2.786393 v -0.84737 z"
         style="font-size:16.9333px;line-height:1.2;font-family:Abel;-inkscape-font-specification:Abel;letter-spacing:3.583px;word-spacing:0px;fill:#000000;stroke-width:0.324594;fill-opacity:1"
         id="path6" />
      <path
         d="m 68.896652,236.2588 -3.422013,9.87584 h 1.091923 l 0.765845,-2.30037 0.285254,-0.84695 1.531689,-4.55241 0.03256,-0.36473 0.03256,0.36473 1.53944,4.55241 0.276986,0.84695 0.774113,2.30037 h 1.083655 l -3.438033,-9.87584 z"
         style="font-size:16.9333px;line-height:1.2;font-family:Abel;-inkscape-font-specification:Abel;letter-spacing:3.583px;word-spacing:0px;fill:#000000;stroke-width:0.324594;fill-opacity:1"
         id="path23"
         inkscape:label="A1" />
      <path
         d="m 60.143698,236.2588 -4.399214,4.93792 4.399214,4.93792 h 1.303797 l -4.489132,-4.93792 4.489132,-4.93792 z"
         style="font-size:16.9333px;line-height:1.2;font-family:Abel;-inkscape-font-specification:Abel;letter-spacing:3.583px;word-spacing:0px;fill:#000000;stroke-width:0.324594;fill-opacity:1"
         id="path4" />
      <path
         d="m 54.441204,236.2588 v 9.87584 h 1.050582 v -9.87584 z"
         style="font-size:16.9333px;line-height:1.2;font-family:Abel;-inkscape-font-specification:Abel;letter-spacing:3.583px;word-spacing:0px;fill:#000000;stroke-width:0.324594;fill-opacity:1"
         id="path3" />
      <text
         xml:space="preserve"
         style="font-style:normal;font-variant:normal;font-weight:normal;font-stretch:normal;font-size:3.52778px;line-height:10.4;font-family:'Century Gothic';-inkscape-font-specification:'Century Gothic';letter-spacing:3.09298px;word-spacing:0px;fill:#000000;fill-opacity:1;stroke-width:0.264583"
         x="55.303738"
         y="251.37341"
         id="text14-7"><tspan
           sodipodi:role="line"
           id="tspan14-8"
           style="font-style:normal;font-variant:normal;font-weight:normal;font-stretch:normal;font-size:3.52778px;line-height:10.4;font-family:'Century Gothic';-inkscape-font-specification:'Century Gothic';letter-spacing:3.09298px;word-spacing:0px;fill:#000000;fill-opacity:1;stroke-width:0.264583"
           x="55.303738"
           y="251.37341"
           rotate="0 0 0 0 0 0 0 0 0 0 0 0 0 0 0 0 0 0 0 0 0 0 0">accelerate your career</tspan></text>
    </g>
    <g
       id="g1"
       transform="translate(5.43639,0.04139254)">
      <path
         d="m 95.987948,8.6671198 -0.680062,0.7963338 11.021034,8.7855104 -24.369056,-0.943612 0.346748,0.888835 30.097908,2.751253 z"
         style="display:none;opacity:0.5;mix-blend-mode:normal;vector-effect:none;fill:#000000;fill-opacity:1;stroke-width:0.487392;stop-color:#000000"
         id="path2"
         inkscape:label="X-Base" />
      <path
         style="color:#000000;font-variation-settings:normal;display:inline;vector-effect:none;fill:#1acc89;fill-opacity:1;stroke:none;stroke-width:0.487392;stroke-linecap:butt;stroke-linejoin:miter;stroke-miterlimit:4;stroke-dasharray:none;stroke-dashoffset:0;stroke-opacity:1;-inkscape-stroke:none;stop-color:#000000"
         d="m 148.14294,236.81655 -0.36943,0.14311 -8.56005,8.62748 12.90301,-0.63379 -10.25495,-0.12974"
         id="path78"
         sodipodi:nodetypes="ccccc"
         inkscape:label="X-accent"
         transform="translate(-53.013901,-228.76512)" />
      <path
         d="m 146.14189,239.11694 -0.28036,-0.19738 -7.58388,-5.33932 -0.63535,-0.005 7.66123,6.84363 -3.44201,4.40474 0.55266,0.0437 3.47675,-3.88619 4.37519,3.86024 1.85035,0.11199 -12.90301,0.63379 16.32223,0.43845 -8.53449,-6.3134 1.99974,-2.28552 -0.858,-0.61012 z"
         style="display:inline;fill:#000000;fill-opacity:1;stroke:none;stroke-width:0.908986;stroke-opacity:1"
         id="path82"
         sodipodi:nodetypes="cccccccccccccccc"
         inkscape:label="X"
         transform="translate(-53.013901,-228.76512)" />
      <path
         style="mix-blend-mode:darken;fill:url(#linearGradient19);stroke-width:0.832573;-inkscape-stroke:none"
         d="m 91.784609,11.202625 1.15853,1.050025 -0.687505,0.747017 -1.675251,-0.59298 z"
         id="path18"
         sodipodi:nodetypes="ccccc"
         inkscape:label="Shdow" />
      <path
         style="mix-blend-mode:darken;fill:url(#linearGradient20);stroke-width:0.832573;-inkscape-stroke:none"
         d="m 92.847629,10.15444 1.13967,0.79263 0.579118,-0.684765 -1.187805,-0.6758896 z"
         id="path19"
         sodipodi:nodetypes="ccccc"
         inkscape:label="Shdow" />
      <ellipse
         style="fill:#1acc89;fill-opacity:1;stroke:none;stroke-width:0.71358;stroke-dasharray:none;stroke-opacity:1"
         id="path77"
         cx="82.651779"
         cy="43.551472"
         rx="1.4500586"
         ry="1.1938502"
         transform="matrix(0.90908526,-0.41661014,0.45376095,0.89112344,-5.2105263,-0.17368421)"
         sodipodi:insensitive="true" />
    </g>
    <path
       style="display:none;fill:#ffffff;fill-opacity:1;stroke:#41ff00;stroke-width:0.1;stroke-dasharray:none;stroke-opacity:1"
       d="M 102.93382,17.25547 85.263749,4.8151199"
       id="path20"
       transform="translate(5.2105264,0.17368421)"
       inkscape:label="path20"
       sodipodi:insensitive="true" />
    <path
       style="display:none;fill:#ffffff;fill-opacity:1;stroke:#00ff5e;stroke-width:0.1;stroke-linecap:square;stroke-dasharray:none;stroke-opacity:1;paint-order:stroke markers fill"
       d="M 96.162219,14.590166 101.19756,8.835234"
       id="path21"
       sodipodi:nodetypes="cc"
       sodipodi:insensitive="true" />
  </g>
</svg>
